<?xml version="1.0" encoding="UTF-8" standalone="no"?>
<svg
   viewBox="0 0 80 80"
   x="0px"
   y="0px"
   version="1.1"
   id="svg10"
   sodipodi:docname="noun-farmer-4363396.svg"
   width="80"
   height="80"
   inkscape:version="1.2.2 (732a01da63, 2022-12-09)"
   xmlns:inkscape="http://www.inkscape.org/namespaces/inkscape"
   xmlns:sodipodi="http://sodipodi.sourceforge.net/DTD/sodipodi-0.dtd"
   xmlns="http://www.w3.org/2000/svg"
   xmlns:svg="http://www.w3.org/2000/svg">
  <sodipodi:namedview
     id="namedview4421"
     pagecolor="#505050"
     bordercolor="#eeeeee"
     borderopacity="1"
     inkscape:showpageshadow="0"
     inkscape:pageopacity="0"
     inkscape:pagecheckerboard="0"
     inkscape:deskcolor="#505050"
     showgrid="false"
     inkscape:zoom="4.637174"
     inkscape:cx="19.0849"
     inkscape:cy="40.110637"
     inkscape:window-width="1366"
     inkscape:window-height="705"
     inkscape:window-x="-8"
     inkscape:window-y="-8"
     inkscape:window-maximized="1"
     inkscape:current-layer="svg10" />
  <defs
     id="defs14" />
  <g
     id="g5646"
     transform="matrix(1.3333333,0,0,1.3741486,-2.6666656,-5.197213)">
    <g
       id="g4">
      <path
         d="m 34.224,28.061 a 1,1 0 0 1 0.343,-1.365 5.316,5.316 0 0 1 5.272,0.006 1,1 0 1 1 -1.049,1.7 3.294,3.294 0 0 0 -3.2,0.01 1,1 0 0 1 -1.366,-0.351 z m -5.307,0.493 a 1,1 0 0 0 0.516,-1.858 5.314,5.314 0 0 0 -5.272,0.006 1,1 0 1 0 1.049,1.7 3.3,3.3 0 0 1 3.2,0.01 1,1 0 0 0 0.507,0.142 z m 6.808,6.813 A 1,1 0 0 0 34.35,35.035 c -2.691,1.644 -4.469,0.181 -4.56,0.1 a 1.000117,1.000117 0 0 0 -1.33,1.494 5.359,5.359 0 0 0 3.4,1.193 6.716,6.716 0 0 0 3.528,-1.084 1,1 0 0 0 0.337,-1.371 z M 62,61 a 1,1 0 0 1 -1,1 H 3 A 1,1 0 0 1 2,61 C 2,46.7 22.748,45.7 22.958,45.692 a 0.935,0.935 0 0 1 0.129,0.02 13.385,13.385 0 0 1 0.838,-2.453 c -3.732,-2.479 -5.149,-6.648 -5.666,-9.977 -0.015,0 -0.031,0 -0.046,0 a 1,1 0 0 1 -0.985,-0.836 26.1,26.1 0 0 1 -0.282,-3.7 0.994,0.994 0 0 1 0.952,-0.99 c 0,-1.582 0.061,-2.931 0.115,-3.76 H 7 A 1,1 0 0 1 6.411,22.188 l 25,-18.214 a 1,1 0 0 1 1.178,0 l 25,18.214 A 1,1 0 0 1 57,24 H 45.987 c 0.054,0.829 0.118,2.178 0.115,3.76 a 0.994,0.994 0 0 1 0.952,0.99 26.1,26.1 0 0 1 -0.282,3.7 1,1 0 0 1 -0.985,0.836 c -0.015,0 -0.031,0 -0.046,0 -0.517,3.329 -1.935,7.5 -5.667,9.976 a 13.351,13.351 0 0 1 0.84,2.454 0.9,0.9 0 0 1 0.128,-0.02 C 41.252,45.7 62,46.7 62,61 Z M 44.929,22 33.494,13.668 30.679,15.6 39.636,22 Z m 9,0 -15.8,-11.51 -2.888,1.979 L 48.326,22 Z m -29.215,-10.669 4.234,3.028 2.831,-1.94 -1.209,-0.88 a 1.0002966,1.0002966 0 0 1 1.178,-1.617 l 1.781,1.3 L 36.417,9.243 32,6.023 Z m 2.477,4.231 -4.181,-2.989 -2.359,1.718 4.108,2.938 z M 10.07,22 H 36.2 l -7.273,-5.2 -5.562,3.811 a 1.0002076,1.0002076 0 0 1 -1.131,-1.65 L 23,18.432 18.99,15.565 c -0.015,-0.01 -0.022,-0.027 -0.037,-0.039 z M 31.9,43.393 H 32 a 0.785,0.785 0 0 1 0.1,0 c 8.877,0 11.336,-6.36 11.833,-11.706 A 51.83,51.83 0 0 0 43.981,24 H 20.019 a 51.975,51.975 0 0 0 0.051,7.687 c 0.497,5.346 2.957,11.705 11.83,11.706 z M 25.7,44.2 c -0.52,1.182 -1.541,4.082 -0.394,6.632 0.946,2.1 3.205,3.58 6.7,4.394 3.491,-0.814 5.75,-2.289 6.7,-4.394 1.148,-2.551 0.125,-5.451 -0.395,-6.632 a 15.239,15.239 0 0 1 -6.2,1.193 h -0.2 A 15.244,15.244 0 0 1 25.7,44.2 Z M 59.958,60 C 59.035,49.3 43.358,47.853 41.206,47.7 a 8.432,8.432 0 0 1 -0.68,3.934 c -1.237,2.764 -4.033,4.647 -8.309,5.595 a 0.978,0.978 0 0 1 -0.213,0.023 H 32 A 0.978,0.978 0 0 1 31.787,57.229 C 27.511,56.281 24.715,54.398 23.478,51.634 A 8.432,8.432 0 0 1 22.798,47.7 C 20.639,47.853 4.965,49.3 4.042,60 H 14 v -4 a 1,1 0 0 1 2,0 v 4 h 32 v -4 a 1,1 0 0 1 2,0 v 4 z"
         id="path2" />
    </g>
    <path
       style="fill:#ffffff;stroke:#000000;stroke-width:0.287964;stroke-linecap:round"
       d="m 29.028571,43.048226 c -2.340339,-0.47098 -4.105703,-1.428066 -5.590475,-3.030858 -1.123327,-1.212615 -1.797665,-2.347493 -2.340812,-3.939469 -0.81918,-2.401035 -0.928094,-3.234984 -1.015173,-7.773137 l -0.08114,-4.228572 h 11.980466 11.980467 l -0.0012,3.314286 c -0.0014,3.795362 -0.155388,5.466585 -0.689352,7.483109 -0.54347,2.052421 -1.430557,3.768721 -2.601693,5.033658 -1.616299,1.745751 -3.334068,2.675786 -5.825872,3.154244 -1.372929,0.263615 -4.474523,0.256541 -5.815198,-0.01326 z m 5.005677,-5.568372 c 1.225184,-0.430618 1.851466,-0.96449 1.851466,-1.578277 0,-0.547825 -0.385583,-1.008411 -0.875067,-1.045282 -0.164806,-0.01242 -0.720445,0.166271 -1.234755,0.397079 -1.338239,0.600567 -2.502404,0.588696 -3.697391,-0.0377 -0.904654,-0.474207 -1.189106,-0.481762 -1.697549,-0.04509 -0.382388,0.328415 -0.34212,1.126205 0.07619,1.509463 1.30102,1.192002 3.54545,1.513872 5.577105,0.799803 z M 25.37637,28.416492 c 0.79212,-0.409621 1.664468,-0.439458 2.585535,-0.08843 1.041154,0.396793 1.29198,0.399007 1.67619,0.0148 0.386718,-0.386718 0.403191,-1.235117 0.03053,-1.572371 -0.389154,-0.35218 -1.482304,-0.710487 -2.488441,-0.815649 -1.137395,-0.118881 -2.865895,0.381736 -3.322566,0.9623 -0.397359,0.505159 -0.397105,0.822793 0.0011,1.328979 0.361231,0.45923 0.852468,0.514376 1.517691,0.170376 z M 36.190476,28.26515 c 0.766098,-0.284967 1.701998,-0.226754 2.433154,0.151342 0.665223,0.344001 1.156461,0.288855 1.517691,-0.170375 0.398167,-0.506187 0.39842,-0.82382 0.0011,-1.32898 -0.456671,-0.580563 -2.185172,-1.081181 -3.322566,-0.9623 -1.006137,0.105162 -2.099287,0.46347 -2.488441,0.81565 -0.316906,0.286795 -0.363695,1.096557 -0.08376,1.449526 0.382323,0.482062 0.745548,0.4905 1.942857,0.04514 z"
       id="path989" />
    <path
       style="fill:#ffffff;stroke:#000000;stroke-width:0.287964;stroke-linecap:round"
       d="m 30.477355,54.693527 c -2.575126,-0.875375 -4.148579,-2.063885 -4.986982,-3.766922 -0.477257,-0.969446 -0.499897,-1.094944 -0.499897,-2.77102 0,-1.443104 0.06324,-1.938663 0.355281,-2.784156 0.195404,-0.565715 0.373241,-1.028572 0.395192,-1.028572 0.02195,0 0.437252,0.136705 0.922889,0.303789 1.799143,0.618996 3.333281,0.803006 6.021876,0.722284 2.416209,-0.07254 3.66411,-0.293741 5.355601,-0.949314 0.200668,-0.07777 0.32258,0.110555 0.609524,0.941583 0.295645,0.85623 0.358685,1.346784 0.358685,2.791182 0,1.574933 -0.04066,1.839099 -0.401549,2.608764 -0.793618,1.692545 -2.316997,2.939686 -4.591944,3.759273 -1.914916,0.689881 -2.005441,0.694309 -3.538676,0.173109 z"
       id="path993" />
    <path
       style="fill:#808000;stroke:#000000;stroke-width:0.287964;stroke-linecap:round"
       d="m 10.666667,21.696757 c 0.527425,-0.409131 7.914325,-5.784378 8.116587,-5.906221 0.169347,-0.102014 0.710648,0.249069 3.910105,2.536061 0.107381,0.07676 0.06603,0.174511 -0.120077,0.283861 -0.53336,0.313385 -0.858996,0.74168 -0.858996,1.129802 0,0.466552 0.625586,1.13593 1.061616,1.13593 0.17246,0 1.595974,-0.868571 3.163362,-1.930158 1.567389,-1.061588 2.92083,-1.929433 3.007648,-1.928546 0.120155,0.0012 6.614811,4.562071 6.926104,4.863825 0.03492,0.03385 -5.690794,0.05936 -12.72381,0.0567 -11.584842,-0.0044 -12.758643,-0.02708 -12.482539,-0.241254 z"
       id="path1064" />
    <path
       style="fill:#808000;stroke:#000000;stroke-width:0.287964;stroke-linecap:round"
       d="m 22.743568,15.682446 -1.942147,-1.38597 1.104051,-0.810049 1.104052,-0.810048 0.685714,0.487497 c 2.725221,1.937451 3.2,2.293533 3.2,2.399987 0,0.120231 -1.652031,1.292956 -2.016016,1.431107 -0.106429,0.0404 -1.067474,-0.550241 -2.135654,-1.312524 z"
       id="path1066" />
    <path
       style="fill:#808000;stroke:#000000;stroke-width:0.287964;stroke-linecap:round"
       d="m 26.937924,12.825345 c -1.024141,-0.735239 -1.902572,-1.377294 -1.952067,-1.42679 -0.0495,-0.0495 1.302725,-1.103069 3.004933,-2.3412761 1.702208,-1.2382069 3.300639,-2.4058683 3.552067,-2.5948032 L 32,6.1189576 33.980952,7.5657531 c 1.089524,0.7957376 2.038431,1.5027367 2.108683,1.5711089 0.07025,0.068372 -0.471251,0.5422362 -1.203339,1.053031 l -1.33107,0.928718 -0.99289,-0.708512 c -1.13696,-0.8113177 -1.740949,-0.9111881 -2.186082,-0.361472 -0.544647,0.672611 -0.312588,1.248415 0.836009,2.074383 l 0.43131,0.31016 -1.306005,0.869129 c -0.718304,0.478021 -1.358107,0.86704 -1.421787,0.864487 -0.06368,-0.0026 -0.953715,-0.606202 -1.977857,-1.341441 z"
       id="path1068" />
    <path
       style="fill:#808000;stroke:#000000;stroke-width:0.287964;stroke-linecap:round"
       d="m 35.27619,18.795531 c -2.388571,-1.717094 -4.330714,-3.158576 -4.315873,-3.203295 0.0442,-0.133184 2.37732,-1.725569 2.528258,-1.725569 0.105752,0 9.162819,6.535889 10.854282,7.832821 0.277494,0.212769 0.0798,0.232977 -2.209524,0.225854 l -2.514285,-0.0078 z"
       id="path1070" />
    <path
       style="fill:#0000ff;stroke:#000000;stroke-width:0.287964;stroke-linecap:round"
       d="m 43.177557,18.159274 c -2.819963,-2.067601 -5.722245,-4.192458 -6.449516,-4.721906 l -1.32231,-0.962632 1.328594,-0.926991 c 1.197426,-0.835471 1.360278,-0.907525 1.649515,-0.729828 0.455322,0.279731 14.750278,10.672732 15.020242,10.920312 0.187461,0.171918 -0.202272,0.202685 -2.438095,0.192474 l -2.661225,-0.01215 z"
       id="path1072" />
    <path
       style="fill:#0000ff;stroke:#000000;stroke-width:0.287964;stroke-linecap:round"
       d="m 4.2544275,59.107649 c 0.1497372,-1.128774 0.7497194,-2.610555 1.535811,-3.793006 1.9434206,-2.923322 5.7309055,-5.206023 10.7480445,-6.477803 1.83034,-0.463967 4.829453,-0.989221 5.648288,-0.989221 h 0.594381 v 0.882271 c 0,3.901507 3.191074,7.159269 8.187248,8.358351 0.999791,0.23995 1.126386,0.239459 2.114301,-0.0082 2.538532,-0.636379 4.678188,-1.802498 6.074386,-3.310559 1.341955,-1.449471 2.02291,-3.093486 2.080827,-5.023692 l 0.02695,-0.898171 h 0.571572 c 0.798928,0 3.815997,0.530541 5.625479,0.989221 5.036361,1.276652 8.803728,3.553132 10.76676,6.505955 0.746199,1.122445 1.368474,2.68981 1.526953,3.84604 l 0.09552,0.696879 h -4.896904 -4.896902 v -2.116452 c 0,-2.450181 -0.142595,-2.819393 -1.078617,-2.79278 -0.92613,0.02633 -1.054716,0.366818 -1.054716,2.79278 v 2.116452 H 32 16.07619 v -2.116452 c 0,-1.7922 -0.04104,-2.16713 -0.267853,-2.447237 -0.33841,-0.417918 -1.144043,-0.461015 -1.561176,-0.08351 -0.277211,0.250872 -0.304304,0.470011 -0.304304,2.461298 v 2.185906 H 9.0470353 4.1512135 Z"
       id="path1143" />
    <path
       style="fill:#808080;stroke:#000000;stroke-width:0.287964;stroke-linecap:round"
       d="m 49.481055,21.647801 -1.261801,-0.0859 -6.16201,-4.495238 C 38.668139,14.594286 35.893093,12.53006 35.890475,12.4795 c -0.0026,-0.05056 0.487298,-0.419127 1.088704,-0.819034 1.044147,-0.694311 1.110618,-0.716697 1.473781,-0.496343 0.209174,0.126919 3.528935,2.518342 7.377248,5.314272 l 6.996933,5.08351 -0.661191,0.102991 c -0.715958,0.111522 -0.803766,0.110962 -2.684895,-0.01709 z"
       id="path1145" />
    <path
       style="fill:#808080;stroke:#000000;stroke-width:0.287964;stroke-linecap:round"
       d="M 4.5287534,58.933333 C 4.8778256,56.997965 6.2801306,54.644762 7.8949093,53.284599 11.19349,50.506133 15.398159,48.943407 21.904762,48.077637 l 0.723809,-0.09631 v 0.983762 c 0,1.996263 1.012453,4.078526 2.71485,5.583504 1.556212,1.375745 5.053885,2.899027 6.656579,2.899027 1.512963,0 4.783971,-1.370009 6.385143,-2.674315 1.767668,-1.439933 2.713888,-3.167951 3.015931,-5.507799 l 0.162995,-1.262669 0.627489,0.08682 c 6.594028,0.912312 10.6551,2.432739 13.92752,5.214332 1.628168,1.38396 3.002816,3.69243 3.352169,5.629349 l 0.144291,0.8 h -4.691765 -4.691765 l -0.04934,-2.204514 c -0.05662,-2.529862 -0.148428,-2.74094 -1.192194,-2.74094 -1.043765,0 -1.135576,0.211078 -1.192193,2.74094 l -0.04934,2.204514 H 31.988759 16.228571 v -2.06716 c 0,-1.136939 -0.06804,-2.194304 -0.151211,-2.349702 -0.185149,-0.345955 -1.068313,-0.657614 -1.463627,-0.516499 -0.779726,0.27834 -0.823257,0.423615 -0.823257,2.747455 v 2.185906 H 9.087469 4.3844617 Z"
       id="path1285" />
    <path
       style="fill:#00ff00;stroke:#000000;stroke-width:0.287964;stroke-linecap:round"
       d="m 14.295694,21.652819 -3.075734,-0.09091 3.666027,-2.666667 c 2.016315,-1.466667 3.754764,-2.718351 3.863219,-2.78152 0.17364,-0.101136 1.553008,0.74558 3.18403,1.954497 l 0.426111,0.315833 -0.398721,0.430227 c -0.519182,0.560207 -0.528961,1.267358 -0.02505,1.811093 0.684648,0.738748 1.012739,0.602483 5.063677,-2.103072 l 1.928417,-1.287957 1.2314,0.858311 c 1.788159,1.246382 4.871116,3.426259 4.994362,3.53138 0.141249,0.120478 -16.957394,0.144078 -20.857743,0.02879 z"
       id="path1356" />
    <path
       style="fill:#00ff00;stroke:#000000;stroke-width:0.287964;stroke-linecap:round"
       d="m 23.179797,15.686045 c -0.878776,-0.593009 -1.670968,-1.16639 -1.760426,-1.27418 -0.124205,-0.149658 0.04775,-0.34357 0.727486,-0.820378 l 0.890138,-0.624396 1.70055,1.220412 c 0.935303,0.671227 1.70055,1.276921 1.70055,1.345988 0,0.138926 -0.802287,0.776547 -1.325499,1.053447 -0.297062,0.157214 -0.516066,0.05513 -1.932799,-0.900893 z"
       id="path1358" />
    <path
       style="fill:#00ff00;stroke:#000000;stroke-width:0.287964;stroke-linecap:round"
       d="m 27.085714,12.64001 c -0.942857,-0.670662 -1.714285,-1.246213 -1.714285,-1.279003 0,-0.05191 3.62839,-2.7606885 5.87986,-4.3896224 l 0.775099,-0.5607823 1.853473,1.3670897 c 1.01941,0.7518993 1.853472,1.3954408 1.853472,1.4300921 0,0.034651 -0.487513,0.4175896 -1.083363,0.8509739 L 33.566607,10.84673 32.903226,10.370326 C 32.185377,9.8548053 31.315175,9.447619 30.931301,9.447619 c -0.442829,0 -0.988444,0.708017 -0.988444,1.282654 0,0.4272 0.126279,0.655943 0.628561,1.138581 l 0.628561,0.603977 -1.087263,0.696918 c -0.597994,0.383305 -1.137989,0.695282 -1.199989,0.693282 -0.062,-0.002 -0.884156,-0.552359 -1.827013,-1.223021 z"
       id="path1360" />
    <path
       style="fill:#00ff00;stroke:#000000;stroke-width:0.287964;stroke-linecap:round"
       d="m 48.685714,21.342915 c -0.354376,-0.0716 -2.169513,-1.307028 -5.409524,-3.681868 -6.676692,-4.893834 -6.919959,-5.076066 -6.927072,-5.189087 -0.0034,-0.05471 0.380498,-0.356184 0.853202,-0.669948 0.816786,-0.542151 0.878533,-0.558908 1.24349,-0.337465 0.54129,0.328435 13.744666,9.904333 13.744666,9.968474 0,0.09586 -2.961133,0.01973 -3.504762,-0.09011 z"
       id="path1362" />
    <path
       style="fill:#00ff00;stroke:#000000;stroke-width:0.287964;stroke-linecap:round"
       d="m 36.184167,19.156064 c -1.887738,-1.365117 -3.760606,-2.732749 -4.161929,-3.039182 l -0.729677,-0.55715 1.083105,-0.720216 1.083106,-0.720217 0.946805,0.663887 c 1.519134,1.065198 7.409562,5.319982 8.474291,6.121165 l 0.975105,0.733744 h -2.119277 -2.119277 z"
       id="path1364" />
  </g>
</svg>
