<?xml version="1.0" encoding="UTF-8" standalone="no"?>
<!-- Created with Inkscape (http://www.inkscape.org/) -->

<svg
   version="1.1"
   id="svg4009"
   width="307.51904"
   height="307.8038"
   viewBox="0 0 307.51905 307.80381"
   sodipodi:docname="OTP_icon_green.svg"
   inkscape:version="1.2.2 (732a01da63, 2022-12-09)"
   xmlns:inkscape="http://www.inkscape.org/namespaces/inkscape"
   xmlns:sodipodi="http://sodipodi.sourceforge.net/DTD/sodipodi-0.dtd"
   xmlns="http://www.w3.org/2000/svg"
   xmlns:svg="http://www.w3.org/2000/svg">
  <sodipodi:namedview
     id="namedview6"
     pagecolor="#505050"
     bordercolor="#eeeeee"
     borderopacity="1"
     inkscape:showpageshadow="0"
     inkscape:pageopacity="0"
     inkscape:pagecheckerboard="0"
     inkscape:deskcolor="#505050"
     showgrid="false"
     inkscape:zoom="1.705632"
     inkscape:cx="95.565752"
     inkscape:cy="154.19505"
     inkscape:window-width="1366"
     inkscape:window-height="705"
     inkscape:window-x="-8"
     inkscape:window-y="-8"
     inkscape:window-maximized="1"
     inkscape:current-layer="svg4009" />
  <defs
     id="defs4013" />
  <g
     id="g4015"
     transform="translate(-525.28044,-9.7780932)"
     style="fill:#008000">
    <path
       style="fill:#008000;fill-opacity:1;stroke-width:0.32"
       d="m 671.93148,317.2725 c -20.49008,-0.86319 -40.82603,-5.9866 -59.50649,-14.99199 -43.48484,-20.96297 -74.82305,-61.25417 -84.27047,-108.34564 -1.93562,-9.64826 -2.6152,-16.15781 -2.8229,-27.04 -0.1779,-9.32054 0.0941,-15.27268 1.03855,-22.7245 4.37125,-34.49048 20.14887,-66.138137 45.14904,-90.562497 29.08201,-28.41219 66.88801,-43.8297798 107.47655,-43.8297798 36.47895,0 70.08245,12.1527898 98.56,35.6444698 4.80224,3.96147 15.37042,14.51919 19.41151,19.39231 16.94816,20.43765 27.86904,43.192407 33.01975,68.800007 3.27485,16.28138 3.7217,36.54101 1.17274,53.17162 -4.38709,28.62343 -16.859,55.61412 -35.75977,77.38837 -4.57676,5.27257 -14.58082,14.97279 -19.47909,18.88748 -23.62281,18.87931 -49.96135,29.95576 -79.49347,33.43031 -3.27286,0.38506 -17.97249,1.23178 -18.55167,1.0686 -0.088,-0.0248 -2.76293,-0.15474 -5.94428,-0.28876 z m -60.44669,-41.36731 c 1.22703,-0.58832 3.02297,-1.79041 3.99097,-2.67131 2.31523,-2.1069 2.69273,-2.2779 4.97984,-2.25573 1.62238,0.0157 2.41269,-0.19902 4.82935,-1.31224 3.13895,-1.44593 5.39867,-1.71864 7.31081,-0.88227 0.85812,0.37534 1.09584,0.34251 2.24,-0.30937 0.704,-0.40109 2,-0.82676 2.88,-0.94592 4.75151,-0.6434 7.5164,-1.59507 9.76,-3.35939 0.616,-0.4844 1.75239,-1.07014 2.52532,-1.30164 1.56382,-0.46838 2.89165,-1.63198 4.40591,-3.86099 0.57629,-0.84831 1.88381,-2.0732 3.04,-2.84788 2.03892,-1.36614 5.1829,-4.11278 8.74877,-7.64307 1.20516,-1.19313 2.7749,-2.32225 4.21619,-3.03271 1.2629,-0.62252 2.37931,-1.26635 2.48089,-1.43072 0.1975,-0.31956 -0.23643,-8.15948 -0.77251,-13.95708 -0.37767,-4.08445 -1.06296,-13.45328 -1.76721,-24.16 -0.27204,-4.136 -0.69824,-9.752 -0.94709,-12.48 -1.16399,-12.75971 -1.29029,-16.78832 -1.25907,-40.15999 0.0192,-14.38322 0.17246,-25.14306 0.39881,-28 0.20218,-2.552 0.51843,-7.232 0.70278,-10.4 0.7511,-12.90762 3.46826,-37.243287 5.28789,-47.360007 0.25324,-1.408 0.61895,-3.712 0.81267,-5.12 0.69446,-5.04745 2.2072,-9.88745 2.88003,-9.21462 0.18521,0.18522 0.0558,5.46347 -0.34034,13.87677 -1.50884,32.04807 -2.17162,69.550037 -1.64252,92.937857 0.44455,19.65027 0.64538,22.32291 3.21011,42.71999 1.81409,14.42732 2.81452,24.3879 3.2767,32.62381 0.47147,8.40158 0.38238,8.18989 4.04701,9.6157 1.283,0.49918 3.51238,1.69093 4.95419,2.64834 1.44181,0.9574 3.77347,2.20699 5.18147,2.77686 3.53656,1.43137 3.95364,1.75083 4.80795,3.68258 0.98471,2.2266 2.35907,3.1016 5.05443,3.21794 1.54994,0.0669 2.70425,0.41079 5.33762,1.59018 7.65,3.42615 9.0286,4.01062 11.57402,4.90693 1.46629,0.51632 4.07444,1.2633 5.79588,1.65995 1.72145,0.39665 3.47413,0.99195 3.89485,1.32289 0.42072,0.33094 1.01667,1.28416 1.32433,2.11826 0.84594,2.29348 1.15831,2.53066 3.58234,2.72018 1.90681,0.14909 7.01167,1.3857 8.93555,2.16457 0.38883,0.15742 1.00376,0.86797 1.3665,1.57901 0.45708,0.89595 0.86761,1.2928 1.33738,1.2928 0.78775,0 4.75824,-2.57673 9.54915,-6.19712 40.92475,-30.92598 60.70655,-82.20984 50.99481,-132.20287 -7.57051,-38.970657 -32.0201,-72.518797 -66.99481,-91.925947 -34.13769,-18.9427 -75.28812,-21.83223 -112,-7.86451 -5.27181,2.00576 -14.80672,6.5473 -19.43947,9.25914 -10.79248,6.31754 -19.39989,13.07427 -28.56673,22.42462 -10.47475,10.68442 -17.62973,20.69005 -24.15521,33.778917 -9.58542,19.22658 -14.00059,37.93761 -14.02763,59.44778 -0.0111,8.84604 0.24161,12.48141 1.41264,20.31999 5.47499,36.64823 26.45748,69.74735 57.56062,90.79984 2.01532,1.36409 3.96337,2.48016 4.32902,2.48016 0.36565,0 1.66875,-0.48136 2.89579,-1.06968 z m 72.46749,-72.37451 c -0.3466,-0.41762 -0.21841,-0.95179 0.78887,-3.28723 6.5844,-15.26642 21.14418,-30.54782 36.6253,-38.44057 4.24146,-2.16243 7.64863,-3.37962 10.35046,-3.69763 1.58038,-0.18602 1.87159,-0.13739 2.05606,0.34332 0.14933,0.38916 -0.0219,0.71356 -0.56115,1.06317 -1.3539,0.87776 -3.53402,3.00299 -4.45761,4.34538 -0.49075,0.71329 -2.00416,3.30338 -3.36313,5.75576 -6.55148,11.82275 -13.6308,19.75521 -23.35532,26.16993 -3.55486,2.34495 -9.24808,5.22388 -13.28,6.7154 -4.30784,1.5936 -4.33325,1.59906 -4.80348,1.03247 z m -1.79407,-7.57656 c -0.44561,-0.72102 -0.53084,-5.43922 -0.13103,-7.25406 1.3659,-6.20019 7.66618,-14.80299 14.31185,-19.54233 5.53429,-3.94676 12.67569,-6.88883 20.35371,-8.3852 3.5979,-0.70119 4.71418,-0.64101 4.1297,0.22263 -0.12468,0.18422 -1.47674,0.94926 -3.00459,1.7001 -11.28837,5.54746 -24.06821,17.10922 -31.34746,28.35961 -3.73726,5.77611 -3.75664,5.79813 -4.31218,4.89925 z m -18.52245,-10.0993 c -2.70432,-4.68184 -9.12764,-10.71626 -17.12,-16.08349 -1.144,-0.76824 -2.224,-1.57003 -2.4,-1.78174 -0.59049,-0.71032 -10.19542,-7.70662 -14.56,-10.60561 -5.509,-3.65913 -12.13942,-7.56572 -19.04,-11.21824 -6.31072,-3.3403 -8.34989,-4.58467 -8.24419,-5.03086 0.12558,-0.53018 3.1704,-0.54603 6.77073,-0.0352 1.8664,0.26479 4.25746,0.57389 5.31346,0.68689 1.056,0.113 2.424,0.33177 3.04,0.48617 0.616,0.1544 3.856,0.85168 7.2,1.54952 3.344,0.69784 6.71011,1.49467 7.48023,1.77073 0.77013,0.27606 1.70826,0.50193 2.08474,0.50193 0.37648,0 1.22185,0.288 1.87861,0.64 0.65676,0.352 1.36081,0.64 1.56457,0.64 0.66979,0 6.77705,3.23989 9.55185,5.06725 3.2652,2.1503 8.02931,6.6688 10.53396,9.99089 2.02964,2.69204 4.70012,7.70962 5.75736,10.81753 1.15496,3.39518 1.80083,7.34857 2.38016,14.56905 0.10908,1.3595 -0.6799,0.65214 -2.19148,-1.96478 z m 16.30222,-74.41819 c -0.28565,-0.7351 0.94172,-6.9967 1.98793,-10.14175 3.19601,-9.607627 11.27032,-15.613337 23.438,-17.433307 3.70192,-0.55371 15.78291,-1.2907 16.52013,-1.0078 0.28872,0.11079 0.47433,0.35327 0.41247,0.53885 -0.0619,0.18557 -2.77383,1.45892 -6.02661,2.82966 -9.70727,4.0907 -16.45875,7.71543 -22.80621,12.24417 -3.80485,2.714667 -8.56319,7.204027 -10.48747,9.894647 -0.78125,1.09238 -1.7339,2.36137 -2.117,2.81997 -0.6324,0.75703 -0.71724,0.78056 -0.92124,0.25556 z m -18.28237,-7.5822 c -10.27223,-4.429057 -17.47742,-11.234227 -23.46377,-22.161117 -1.01299,-1.84901 -2.40207,-3.81901 -3.4074,-4.83239 -0.93348,-0.94095 -1.60381,-1.80425 -1.48962,-1.91843 0.67548,-0.67549 4.47551,0.20588 7.52653,1.7457 1.66076,0.83816 1.85287,0.87262 2.12765,0.38161 0.27211,-0.48623 0.54406,-0.50211 2.74362,-0.16015 9.01364,1.40132 18.37556,8.31788 21.29952,15.73604 0.78456,1.99045 0.88682,5.48898 0.17764,6.07755 -0.61311,0.50883 -1.01174,0.22582 -1.76689,-1.25438 -0.81549,-1.5985 -4.06095,-5.68761 -6.70529,-8.44832 -3.40622,-3.55611 -8.61985,-7.66246 -11.81158,-9.30301 -1.78755,-0.91881 -1.43886,-0.38546 0.83458,1.27654 7.29215,5.33094 13.59394,12.70944 17.37073,20.338657 2.08505,4.21186 1.49266,4.64665 -3.43572,2.5217 z"
       id="path5738" />
  </g>
</svg>
